<svg xmlns="http://www.w3.org/2000/svg" width="50" height="50" viewBox="0 0 50 50" fill="none">
  <path d="M25 10C33.2843 10 40 16.7157 40 25C40 33.2843 33.2843 40 25 40C16.7157 40 10 33.2843 10 25C10 16.7157 16.7157 10 25 10ZM25 13.1343C18.4468 13.1343 13.1343 18.4468 13.1343 25C13.1343 31.5532 18.4468 36.8657 25 36.8657C31.5532 36.8657 36.8657 31.5532 36.8657 25C36.8657 18.4468 31.5532 13.1343 25 13.1343ZM25.8209 25L22.4739 21.5559C21.8619 20.9439 21.8619 19.9516 22.4739 19.3396C23.086 18.7276 24.0782 18.7276 24.6902 19.3396L29.1679 23.8172C29.7799 24.4292 29.7799 25.4215 29.1679 26.0335L24.6902 30.5111C24.0782 31.1232 23.086 31.1232 22.4739 30.5111C21.8619 29.8991 21.8619 28.9068 22.4739 28.2948L25.8209 25Z" fill="#5671A6"/>
</svg>