<svg xmlns="http://www.w3.org/2000/svg" width="50" height="50" viewBox="0 0 50 50" fill="none">
<path d="M25 40C16.7157 40 10 33.2843 10 25C10 16.7157 16.7157 10 25 10C33.2843 10 40 16.7157 40 25C40 33.2843 33.2843 40 25 40ZM25 36.8657C31.5532 36.8657 36.8657 31.5532 36.8657 25C36.8657 18.4468 31.5532 13.1343 25 13.1343C18.4468 13.1343 13.1343 18.4468 13.1343 25C13.1343 31.5532 18.4468 36.8657 25 36.8657ZM24.1791 25L27.5261 28.4441C28.1381 29.0561 28.1381 30.0484 27.5261 30.6604C26.914 31.2724 25.9218 31.2724 25.3098 30.6604L20.8321 26.1828C20.2201 25.5708 20.2201 24.5785 20.8321 23.9665L25.3098 19.4889C25.9218 18.8768 26.914 18.8768 27.5261 19.4889C28.1381 20.1009 28.1381 21.0932 27.5261 21.7052L24.1791 25Z" fill="#5671A6"/>
</svg>